<svg id="Layer_1" data-name="Layer 1" xmlns="http://www.w3.org/2000/svg" viewBox="0 0 195.27 201.97"><defs><style>.cls-1{fill:#342038;}</style></defs><path class="cls-1" d="M119.76,115.37l.32-19.75-30.65-.47L105.55,79.8l-24-24.26L56.89,79.06,72.52,94.89l-30.65-.47-.35,22.43-7.76-.12.36-22.43-32.8-.5L.8,126l24.3.37-.2,12.38L.61,138.39.09,170.6l32.8.5.36-22.43,7.76.12-.36,22.43,29.3.45L58.57,182.5l20.64,20.91,21.29-20.26L89.47,172l29.38.45.24-15.06,18.62.29.67-42Zm-9.66,9.45L96,124.6l.22-13.83,14.09.21Z" transform="translate(-0.09 -1.44)"/><rect class="cls-1" x="135.77" y="60.25" width="23.2" height="23.2"/><rect class="cls-1" x="160.87" width="34.4" height="34.4"/></svg>